<svg width="161" height="44" viewBox="0 0 161 44" fill="none" xmlns="http://www.w3.org/2000/svg">
<g clip-path="url(#clip0_631_804)">
<path d="M16.8637 42.4396L16.894 42.4545C19.5616 43.7662 22.799 42.6902 24.125 40.0512L34.0746 20.2487C35.4006 17.6096 34.313 14.4069 31.6453 13.0952L31.6151 13.0803C28.9474 11.7685 25.71 12.8445 24.384 15.4835L14.4344 35.2861C13.1084 37.9251 14.1961 41.1278 16.8637 42.4396Z" fill="#313131"/>
<path d="M16.8637 42.4396L16.894 42.4545C19.5616 43.7662 22.799 42.6902 24.125 40.0512L34.0746 20.2487C35.4006 17.6096 34.313 14.4069 31.6453 13.0952L31.6151 13.0803C28.9474 11.7685 25.71 12.8445 24.384 15.4835L14.4344 35.2861C13.1084 37.9251 14.1961 41.1278 16.8637 42.4396Z" fill="url(#paint0_linear_631_804)"/>
<path d="M36.8198 42.4513L36.822 42.4523C39.5054 43.7534 42.7468 42.6561 44.062 40.0015L51.1548 25.6848C52.4699 23.0301 51.3608 19.8235 48.6774 18.5224L48.6752 18.5213C45.9919 17.2203 42.7504 18.3176 41.4353 20.9722L34.3424 35.2889C33.0273 37.9435 34.1365 41.1502 36.8198 42.4513Z" fill="url(#paint1_linear_631_804)"/>
<path d="M3.04102 4.81506L3.03885 4.81611C0.355476 6.11716 -0.753685 9.32386 0.561466 11.9785L14.4442 40.0004C15.7593 42.655 19.0008 43.7523 21.6841 42.4513L21.6863 42.4502C24.3697 41.1492 25.4788 37.9425 24.1637 35.2879L10.281 7.26588C8.96583 4.61128 5.72439 3.51401 3.04102 4.81506Z" fill="url(#paint2_linear_631_804)"/>
<path d="M1.61182 12.2351C0.263942 9.51563 1.16253 6.29198 3.58533 4.6001C3.39933 4.66701 3.21333 4.74109 3.02975 4.82951C0.348486 6.13187 -0.760254 9.3388 0.553808 11.9937L14.436 40.0125C14.9046 40.9588 15.622 41.702 16.4675 42.2158L1.61182 12.2351Z" fill="url(#paint3_linear_631_804)"/>
<path d="M34.1205 15.4975C32.7903 12.8502 29.5428 11.7708 26.8668 13.0867C24.1908 14.4025 23.0998 17.6153 24.4299 20.2626L34.358 40.0223C35.6881 42.6696 38.9357 43.749 41.6117 42.4331C44.2877 41.1173 45.3787 37.9045 44.0486 35.2572L34.1205 15.4975Z" fill="url(#paint4_linear_631_804)"/>
<path d="M34.9415 40.0191L25.0136 20.259C23.6826 17.6112 24.7744 14.3995 27.4509 13.0828C28.1151 12.7555 28.8132 12.5786 29.5089 12.5332C28.6055 12.4854 27.6779 12.6551 26.8107 13.0828C24.1343 14.3995 23.0449 17.6112 24.3734 20.259L34.3014 40.0191C35.3014 42.0097 37.386 43.1137 39.4972 42.9799C37.6155 42.8771 35.8401 41.809 34.9415 40.0191Z" fill="#42D9FC"/>
<path d="M52.1761 15.8364C55.2205 15.8364 57.6884 13.6656 57.6884 10.9878C57.6884 8.30996 55.2205 6.13916 52.1761 6.13916C49.1318 6.13916 46.6638 8.30996 46.6638 10.9878C46.6638 13.6656 49.1318 15.8364 52.1761 15.8364Z" fill="url(#paint5_linear_631_804)"/>
<path opacity="0.25" d="M52.2608 12.5723C50.4999 12.9714 48.8332 13.2366 47.3887 13.3728C47.594 13.6883 47.8331 13.9846 48.1109 14.2522C49.425 14.1351 50.9492 13.8914 52.5652 13.5258C54.4856 13.0909 56.2175 12.5508 57.5678 11.9964C57.6475 11.6714 57.6886 11.3321 57.6886 10.9856C57.6886 10.9665 57.6862 10.9473 57.6862 10.9282C56.2006 11.5232 54.331 12.1015 52.2633 12.5699L52.2608 12.5723Z" fill="black"/>
<path d="M48.877 6.30383C48.7441 6.30383 48.6137 6.2417 48.5339 6.12461C48.4035 5.93821 48.4518 5.68252 48.6426 5.55348C49.4446 5.01102 50.3794 4.66452 51.3481 4.54982C51.795 4.49725 52.2491 4.49247 52.6959 4.53787C52.923 4.56177 53.0897 4.7625 53.0655 4.98952C53.0414 5.21414 52.8385 5.37425 52.609 5.35513C52.2249 5.31451 51.8336 5.31929 51.4471 5.36469C50.6089 5.46267 49.8021 5.76138 49.1113 6.22975C49.0388 6.27754 48.9591 6.30144 48.877 6.30144V6.30383Z" fill="url(#paint6_linear_631_804)"/>
<path d="M52.056 16.4887C49.9013 16.4887 47.8915 15.3513 46.8045 13.4658L46.4712 12.8875L47.1451 12.8541C48.6379 12.78 50.4979 12.5028 52.3821 12.075C54.3 11.6401 56.1286 11.0738 57.5248 10.4811L58.1456 10.2183L58.1045 10.885C57.9209 13.7645 55.6817 16.104 52.7782 16.4481C52.5367 16.4768 52.2975 16.4911 52.0584 16.4911L52.056 16.4887ZM47.9012 13.6235C49.0099 15.0741 50.8168 15.8483 52.6768 15.6308C54.9522 15.3608 56.7566 13.6713 57.1866 11.5039C55.8532 12.0153 54.242 12.4956 52.5656 12.8732C50.8989 13.2507 49.3022 13.5064 47.9012 13.6235Z" fill="black"/>
<path d="M46.23 13.6994C45.0995 13.6994 43.568 13.5489 43.3651 12.6671C43.1815 11.8881 44.1284 11.066 46.2589 10.1627L46.8266 9.92139L46.8363 10.5331C46.8387 10.7243 46.8507 10.9107 46.8725 11.109C46.9546 11.7997 47.1744 12.4544 47.5223 13.0566L47.858 13.6349L47.1841 13.6708C46.9594 13.6827 46.6189 13.6994 46.23 13.6994ZM46.044 11.1568C44.4763 11.8905 44.1647 12.3827 44.1719 12.4831C44.2081 12.5811 44.7178 12.8917 46.5005 12.8702C46.2686 12.3397 46.1164 11.7829 46.0464 11.2022V11.1975C46.0464 11.1831 46.044 11.1688 46.0415 11.1545L46.044 11.1568Z" fill="url(#paint7_linear_631_804)"/>
<path d="M57.2275 11.4989L57.2734 10.8298C57.2952 10.5072 57.2879 10.2013 57.2493 9.89302C57.1792 9.32906 57.0246 8.79139 56.7879 8.29673L56.5198 7.73754L57.1454 7.71126C59.3991 7.62284 60.5779 7.95261 60.7567 8.72447C60.9402 9.51067 59.9885 10.3327 57.8483 11.236L57.2251 11.4989H57.2275ZM57.7734 8.51657C57.9184 8.92521 58.0174 9.35296 58.073 9.79265C58.0899 9.93364 58.102 10.077 58.1092 10.2204C59.6552 9.49395 59.9595 9.00645 59.9499 8.90609C59.916 8.81528 59.4498 8.51418 57.7759 8.51657H57.7734Z" fill="url(#paint8_linear_631_804)"/>
<path d="M46.6044 5.40537C46.6044 5.40537 49.0272 2.9249 51.0055 2.9249C51.8824 2.9249 52.7061 3.13758 53.4332 3.51037C53.7737 3.68481 54.1916 3.61073 54.4453 3.32636L54.9622 2.74807C55.1893 2.49237 55.0492 2.08852 54.711 2.02639L48.9233 0.967769C48.7808 0.941483 48.6334 0.986886 48.5296 1.08964L44.469 5.09471C44.2154 5.34563 44.3507 5.77577 44.7058 5.8379L45.6019 5.99323H45.6309C45.9063 6.01234 46.172 5.89525 46.3435 5.68257L46.6068 5.41015L46.6044 5.40537Z" fill="#00BDF1"/>
<path d="M46.5771 6.30082C46.5771 6.30082 49.2366 3.57899 51.4082 3.57899C52.3696 3.57899 53.2754 3.81079 54.0726 4.22181C54.447 4.41537 54.9035 4.33174 55.1837 4.01869L55.7514 3.38304C56.0026 3.10345 55.8456 2.65897 55.4736 2.58967L49.1207 1.42591C48.9637 1.39723 48.8018 1.44742 48.6883 1.55734L44.2316 5.95432C43.9514 6.22913 44.1036 6.70228 44.4925 6.76919L45.4756 6.93886H45.507C45.809 6.96036 46.1012 6.83132 46.2897 6.59714L46.5795 6.29604L46.5771 6.30082Z" fill="black"/>
<path d="M55.3375 2.57766L48.9845 1.4139C48.8976 1.39717 48.8082 1.40912 48.7261 1.43779L49.5087 3.3997C49.6222 3.68407 49.9387 3.83701 50.2334 3.74143C50.5836 3.62911 50.9315 3.56459 51.2697 3.56459C52.231 3.56459 53.1369 3.79639 53.934 4.20741C54.3084 4.40097 54.765 4.31733 55.0452 4.00429L55.6128 3.36864C55.864 3.08905 55.707 2.64457 55.335 2.57527L55.3375 2.57766Z" fill="#313131"/>
<path d="M52.4254 6.5C53.9979 6.5 55.4231 7.0544 56.4666 7.95052C55.4569 6.8465 53.9109 6.13916 52.1742 6.13916C49.1306 6.13916 46.6619 8.30897 46.6619 10.9878C46.6619 11.0093 46.6643 11.0308 46.6667 11.0547C46.9735 8.49537 49.4325 6.5 52.423 6.5H52.4254Z" fill="#42D9FC"/>
<path d="M46.7915 13.6703L46.6659 13.4504C46.2625 12.7526 46.0088 11.9903 45.9122 11.1898C45.888 10.9628 45.8736 10.7477 45.8711 10.5303C45.8566 9.063 46.3905 7.64593 47.3712 6.53713C47.5234 6.36746 47.7843 6.34835 47.9558 6.4989C48.1273 6.64944 48.1466 6.90753 47.9944 7.07719C47.149 8.03306 46.6876 9.25656 46.6997 10.5183C46.7021 10.7071 46.7142 10.8959 46.7359 11.0942C46.8084 11.6988 46.9871 12.2795 47.2649 12.8195C48.7094 12.7264 50.4655 12.4587 52.2434 12.0572C54.055 11.6462 55.7846 11.1205 57.1469 10.5637C57.1518 10.3319 57.1397 10.1049 57.1107 9.87549C57.0407 9.31153 56.8861 8.77385 56.6493 8.27919C56.0696 7.06286 55.0044 6.09743 53.7265 5.63145C53.5115 5.55259 53.4004 5.3184 53.4801 5.10572C53.5598 4.89304 53.799 4.78312 54.0116 4.86198C55.4923 5.40204 56.7266 6.5204 57.3982 7.9303C57.6735 8.50621 57.8523 9.12752 57.9344 9.77751C57.9779 10.1336 57.9876 10.5016 57.9634 10.8696L57.9465 11.1205L57.7122 11.2185C56.2701 11.8302 54.3932 12.4109 52.427 12.8578C50.4679 13.3023 48.608 13.5771 47.0475 13.6559L46.7939 13.6679L46.7915 13.6703Z" fill="url(#paint9_linear_631_804)"/>
<path d="M45.5172 8.51863C45.5172 8.84124 45.2539 9.10171 44.9278 9.10171C44.6017 9.10171 44.3384 8.84124 44.3384 8.51863C44.3384 8.32746 44.5461 7.7396 44.7152 7.29752C44.7901 7.10395 45.0655 7.10395 45.1403 7.29752C45.3094 7.74199 45.5172 8.32746 45.5172 8.51863Z" fill="#313131"/>
</g>
<path d="M71.6947 26.0319L73.2949 32.1507L75.7334 24.0907C75.9491 23.3949 76.8066 23.0256 77.5084 23.2317C78.2511 23.455 78.6607 24.3369 78.4259 25.0527L74.7968 36.3252C74.5811 37.021 74.095 37.4705 73.4697 37.4705H73.2758C72.6313 37.4705 72.1043 37.001 71.9295 36.3252L70.3485 29.9632L68.7674 36.3252C68.5926 37.001 68.0656 37.4705 67.4211 37.4705H67.2273C66.6019 37.4705 66.1159 37.021 65.9001 36.3252L62.271 25.0527C62.0362 24.3369 62.4458 23.4579 63.1886 23.2317C63.8903 23.0256 64.7505 23.3949 64.9635 24.0907L67.402 32.1507L69.0022 26.0319C69.1579 25.4192 69.6084 25.0499 70.2911 25.0499H70.4085C71.0912 25.0499 71.5391 25.4192 71.6974 26.0319H71.6947Z" fill="url(#paint10_linear_631_804)"/>
<path d="M86.4467 36.6919C85.5291 37.3276 84.3768 37.5509 83.3036 37.5509C80.6876 37.5509 78.5413 35.5667 78.5413 32.5574C78.5413 29.5482 80.6876 27.627 83.3036 27.627C85.9196 27.627 87.9677 29.6312 87.9677 32.6405C87.9677 33.153 87.5581 33.5195 87.1293 33.5195H81.2556C81.3921 34.6247 82.5445 35.0942 83.5002 35.0942C84.0464 35.0942 84.516 35.0542 85.0813 34.6447C85.7066 34.1952 86.4084 34.3183 86.7989 34.7879C87.3068 35.4006 87.1102 36.2825 86.4467 36.6919ZM85.2369 31.7414C85.1004 30.5761 84.3385 30.0006 83.3255 30.0006C82.3124 30.0006 81.5314 30.5331 81.2965 31.7414H85.2369Z" fill="url(#paint11_linear_631_804)"/>
<path d="M95.1081 27.6268C97.4292 27.6268 99.5373 29.4077 99.5373 32.5773C99.5373 35.7469 97.4292 37.5478 95.1081 37.5478C94.0732 37.5478 92.9618 37.0153 92.3774 36.0132V36.1964C92.3583 36.8922 91.733 37.4648 91.0121 37.4648C90.2912 37.4648 89.6467 36.9122 89.6467 36.1964V23.7757C89.6467 23.0599 90.2721 22.5073 91.0121 22.5073C91.7521 22.5073 92.3583 23.08 92.3774 23.7757V29.1557C93.1584 27.8873 94.5238 27.621 95.1081 27.621V27.6268ZM94.5811 30.1836C93.3523 30.1836 92.3556 31.3289 92.3556 32.5973C92.3556 33.8657 93.3523 35.011 94.5811 35.011C95.9465 35.011 96.7274 33.8657 96.7274 32.5973C96.7274 31.3289 95.9465 30.1836 94.5811 30.1836Z" fill="url(#paint12_linear_631_804)"/>
<path d="M104.671 32.3335C105.433 32.0272 106.154 32.4566 106.427 33.0493C106.719 33.685 107.383 34.3807 108.592 34.3807C109.802 34.3807 110.545 33.8081 110.564 32.8861C110.583 32.2505 110.31 31.7008 108.945 31.2913L107.325 30.8217C104.36 29.8597 103.852 28.0788 103.852 26.8104C103.852 24.2936 105.9 22.5957 108.478 22.5957C110.408 22.5957 111.853 23.4747 112.576 24.9493C112.907 25.625 112.634 26.2807 112.148 26.6071C111.446 27.0767 110.821 26.8734 110.354 26.2578C109.788 25.5019 109.046 25.2757 108.442 25.2757C107.448 25.2757 106.705 25.8884 106.705 26.7273C106.705 27.0967 106.842 27.7695 108.15 28.1589L109.75 28.6486C113.008 29.6306 113.478 31.5547 113.439 32.9033C113.401 35.7064 110.982 37.0349 108.601 37.0349C106.219 37.0349 104.502 35.8267 103.917 34.0057C103.702 33.2898 104.016 32.5941 104.679 32.3278L104.671 32.3335Z" fill="black"/>
<path d="M119.813 34.2767C120.302 34.2767 120.769 34.1336 121.159 33.9074C121.648 33.621 122.448 33.4979 122.934 34.0104C123.48 34.5831 123.404 35.6282 122.76 36.0977C121.94 36.7105 120.905 37.0397 119.813 37.0397C117.197 37.0397 114.819 35.1156 114.819 32.1093V32.0491C114.819 29.0427 117.2 27.1187 119.813 27.1187C120.905 27.1187 121.94 27.4451 122.76 28.0607C123.404 28.5302 123.48 29.5753 122.934 30.1479C122.445 30.6605 121.645 30.5373 121.159 30.251C120.769 30.0248 120.302 29.8817 119.813 29.8817C118.642 29.8817 117.588 30.7206 117.588 32.0491V32.1093C117.588 33.4407 118.642 34.2796 119.813 34.2796V34.2767Z" fill="black"/>
<path d="M131.304 31.7603C131.304 30.5119 130.446 29.8792 129.624 29.8792C128.802 29.8792 127.83 30.3487 127.83 31.8033V35.6915C127.83 36.4073 127.205 36.9599 126.465 36.9599C125.725 36.9599 125.119 36.3873 125.1 35.6915V23.2708C125.119 22.5751 125.744 22.0024 126.465 22.0024C127.186 22.0024 127.83 22.555 127.83 23.2708V28.794C128.202 27.6086 129.51 27.1162 130.367 27.1162C132.767 27.1162 134.034 28.774 134.034 31.6572V35.6887C134.034 36.4045 133.409 36.9571 132.669 36.9571C131.929 36.9571 131.323 36.3844 131.304 35.6887V31.7603Z" fill="black"/>
<path d="M135.813 32.0467C135.813 29.0403 137.94 27.1162 140.594 27.1162C143.248 27.1162 145.395 29.0403 145.395 32.0467C145.395 35.0531 143.248 37.0401 140.594 37.0401C137.94 37.0401 135.813 35.0559 135.813 32.0467ZM142.661 32.0467C142.661 30.7582 141.725 29.8792 140.594 29.8792C139.464 29.8792 138.546 30.7582 138.546 32.0467C138.546 33.3351 139.483 34.2771 140.594 34.2771C141.706 34.2771 142.661 33.3552 142.661 32.0467Z" fill="black"/>
<path d="M146.798 32.0467C146.798 29.0403 148.925 27.1162 151.579 27.1162C154.233 27.1162 156.38 29.0403 156.38 32.0467C156.38 35.0531 154.233 37.0401 151.579 37.0401C148.925 37.0401 146.798 35.0559 146.798 32.0467ZM153.646 32.0467C153.646 30.7582 152.71 29.8792 151.579 29.8792C150.449 29.8792 149.531 30.7582 149.531 32.0467C149.531 33.3351 150.468 34.2771 151.579 34.2771C152.69 34.2771 153.646 33.3552 153.646 32.0467Z" fill="black"/>
<path d="M161 35.6891C161 36.4049 160.375 36.9575 159.635 36.9575C158.895 36.9575 158.289 36.3848 158.27 35.6891V23.2684C158.289 22.5726 158.914 22 159.635 22C160.356 22 161 22.5526 161 23.2684V35.6891Z" fill="black"/>
<defs>
<linearGradient id="paint0_linear_631_804" x1="29.2356" y1="16.4293" x2="19.6477" y2="38.7406" gradientUnits="userSpaceOnUse">
<stop offset="0.25" stop-color="#313131"/>
<stop offset="1"/>
</linearGradient>
<linearGradient id="paint1_linear_631_804" x1="47.4083" y1="18.8081" x2="36.0874" y2="47.7968" gradientUnits="userSpaceOnUse">
<stop offset="0.25" stop-color="#313131"/>
<stop offset="1"/>
</linearGradient>
<linearGradient id="paint2_linear_631_804" x1="20.6856" y1="40.5169" x2="-7.89221" y2="-11.6112" gradientUnits="userSpaceOnUse">
<stop offset="0.25" stop-color="#313131"/>
<stop offset="1"/>
</linearGradient>
<linearGradient id="paint3_linear_631_804" x1="-2.85212" y1="4.98722" x2="31.2836" y2="56.0444" gradientUnits="userSpaceOnUse">
<stop stop-color="#757575"/>
<stop offset="1"/>
</linearGradient>
<linearGradient id="paint4_linear_631_804" x1="24.3489" y1="8.63515" x2="45.0122" y2="49.4663" gradientUnits="userSpaceOnUse">
<stop stop-color="#00BDF1"/>
<stop offset="1" stop-color="#008BD6"/>
</linearGradient>
<linearGradient id="paint5_linear_631_804" x1="50.3451" y1="5.34579" x2="54.4976" y2="18.4313" gradientUnits="userSpaceOnUse">
<stop stop-color="#00BDF1"/>
<stop offset="1" stop-color="#008BD6"/>
</linearGradient>
<linearGradient id="paint6_linear_631_804" x1="44.5217" y1="2.8675" x2="63.2046" y2="10.6757" gradientUnits="userSpaceOnUse">
<stop offset="0.25" stop-color="#313131"/>
<stop offset="1"/>
</linearGradient>
<linearGradient id="paint7_linear_631_804" x1="41.522" y1="10.0456" x2="60.2049" y2="17.8539" gradientUnits="userSpaceOnUse">
<stop offset="0.25" stop-color="#313131"/>
<stop offset="1"/>
</linearGradient>
<linearGradient id="paint8_linear_631_804" x1="44.1256" y1="3.81372" x2="62.8108" y2="11.622" gradientUnits="userSpaceOnUse">
<stop offset="0.25" stop-color="#313131"/>
<stop offset="1"/>
</linearGradient>
<linearGradient id="paint9_linear_631_804" x1="42.9749" y1="6.22647" x2="61.6577" y2="14.0347" gradientUnits="userSpaceOnUse">
<stop offset="0.25" stop-color="#313131"/>
<stop offset="1"/>
</linearGradient>
<linearGradient id="paint10_linear_631_804" x1="70.3485" y1="23.1974" x2="70.3485" y2="36.5629" gradientUnits="userSpaceOnUse">
<stop stop-color="#00BDF1"/>
<stop offset="1" stop-color="#008BD6"/>
</linearGradient>
<linearGradient id="paint11_linear_631_804" x1="83.2572" y1="3.36685" x2="83.2572" y2="36.5631" gradientUnits="userSpaceOnUse">
<stop stop-color="#00BDF1"/>
<stop offset="1" stop-color="#008BD6"/>
</linearGradient>
<linearGradient id="paint12_linear_631_804" x1="94.592" y1="23.1974" x2="94.592" y2="36.5629" gradientUnits="userSpaceOnUse">
<stop stop-color="#00BDF1"/>
<stop offset="1" stop-color="#008BD6"/>
</linearGradient>
<clipPath id="clip0_631_804">
<rect width="107.028" height="42.0795" fill="white" transform="translate(0 0.960449)"/>
</clipPath>
</defs>
</svg>
